<svg width="40" height="40" viewBox="0 0 40 40" fill="none" xmlns="http://www.w3.org/2000/svg">
<path d="M20 12.7273C15.9818 12.7273 12.7273 15.9818 12.7273 20C12.7273 24.0182 15.9818 27.2727 20 27.2727C24.0182 27.2727 27.2727 24.0182 27.2727 20C27.2727 15.9818 24.0182 12.7273 20 12.7273ZM36.2545 18.1818C35.8427 14.4948 34.1894 11.0573 31.566 8.43399C28.9427 5.81064 25.5052 4.15729 21.8182 3.74545V1.81818C21.8182 0.818182 21 0 20 0C19 0 18.1818 0.818182 18.1818 1.81818V3.74545C14.4948 4.15729 11.0573 5.81064 8.43399 8.43399C5.81064 11.0573 4.15729 14.4948 3.74545 18.1818H1.81818C0.818182 18.1818 0 19 0 20C0 21 0.818182 21.8182 1.81818 21.8182H3.74545C4.15729 25.5052 5.81064 28.9427 8.43399 31.566C11.0573 34.1894 14.4948 35.8427 18.1818 36.2545V38.1818C18.1818 39.1818 19 40 20 40C21 40 21.8182 39.1818 21.8182 38.1818V36.2545C25.5052 35.8427 28.9427 34.1894 31.566 31.566C34.1894 28.9427 35.8427 25.5052 36.2545 21.8182H38.1818C39.1818 21.8182 40 21 40 20C40 19 39.1818 18.1818 38.1818 18.1818H36.2545ZM20 32.7273C12.9636 32.7273 7.27273 27.0364 7.27273 20C7.27273 12.9636 12.9636 7.27273 20 7.27273C27.0364 7.27273 32.7273 12.9636 32.7273 20C32.7273 27.0364 27.0364 32.7273 20 32.7273Z" fill="#333333"/>
</svg>
